<svg width="87" height="64" viewBox="0 0 87 64" fill="none" xmlns="http://www.w3.org/2000/svg">
<path d="M1.10998 61.1916H3.48355V62.251H0V56.6333H3.44334V57.6926H1.11076V58.8884H3.24304V59.9317H1.11076L1.10998 61.1916Z" fill="white"/>
<path d="M12.7768 56.6355C13.1384 56.6269 13.4977 56.6947 13.8312 56.8344C14.1648 56.974 14.4649 57.1825 14.712 57.446C15.2107 57.9928 15.4871 58.7054 15.4871 59.4447C15.4871 60.184 15.2107 60.8967 14.712 61.4434C14.465 61.7071 14.1649 61.9157 13.8313 62.0556C13.4978 62.1954 13.1385 62.2633 12.7768 62.2548H10.5399V56.6371L12.7768 56.6355ZM12.7768 61.1954C12.9984 61.2035 13.2192 61.1643 13.4244 61.0806C13.6297 60.9969 13.8147 60.8705 13.9672 60.7099C14.2636 60.3549 14.426 59.9075 14.426 59.4455C14.426 58.9835 14.2636 58.5361 13.9672 58.1811C13.8147 58.0205 13.6297 57.8941 13.4244 57.8104C13.2192 57.7267 12.9984 57.6875 12.7768 57.6956H11.6507V61.1914L12.7768 61.1954Z" fill="white"/>
<path d="M24.6117 62.3673C24.0487 62.3898 23.4977 62.2008 23.0674 61.8377C22.8673 61.6604 22.7092 61.4409 22.6047 61.195C22.5002 60.9492 22.452 60.6832 22.4634 60.4164V56.6357H23.5661V60.3273C23.5593 60.4548 23.5782 60.5824 23.6217 60.7025C23.6653 60.8225 23.7325 60.9327 23.8195 61.0263C24.05 61.1932 24.3274 61.2831 24.6121 61.2831C24.8969 61.2831 25.1744 61.1932 25.4048 61.0263C25.4918 60.9327 25.559 60.8225 25.6026 60.7025C25.6461 60.5824 25.665 60.4548 25.6582 60.3273V56.6357H26.7682V60.4164C26.7797 60.6832 26.7315 60.9491 26.6272 61.1949C26.5228 61.4408 26.3649 61.6603 26.1649 61.8377C25.7319 62.202 25.1777 62.391 24.6117 62.3673Z" fill="white"/>
<path d="M36.712 62.3673C36.3227 62.3794 35.9351 62.3107 35.5738 62.1657C35.2124 62.0207 34.8852 61.8024 34.6128 61.5247C34.0803 60.9619 33.7836 60.2173 33.7836 59.4433C33.7836 58.6694 34.0803 57.9247 34.6128 57.362C34.8859 57.0854 35.2133 56.8681 35.5746 56.7238C35.9358 56.5795 36.3231 56.5112 36.712 56.5233C37.2058 56.5194 37.6922 56.6424 38.1244 56.8805C38.5426 57.1059 38.8915 57.4404 39.1339 57.8483L38.1767 58.4021C38.0393 58.1524 37.8326 57.9476 37.5815 57.8122C37.2292 57.6319 36.8299 57.5642 36.4377 57.618C36.0455 57.6718 35.6793 57.8447 35.3889 58.1131C35.0641 58.4798 34.8849 58.9523 34.8849 59.4417C34.8849 59.9311 35.0641 60.4036 35.3889 60.7703C35.562 60.9424 35.7689 61.0769 35.9966 61.1653C36.2243 61.2537 36.4679 61.2941 36.712 61.2839C37.0163 61.2882 37.3167 61.215 37.5848 61.0712C37.8348 60.9394 38.0404 60.7371 38.1759 60.4894L39.1331 61.0431C38.8916 61.4501 38.5441 61.7843 38.1277 62.0102C37.6946 62.2491 37.2069 62.3722 36.712 62.3673Z" fill="white"/>
<path d="M49.7719 62.2549L49.414 61.2437H47.0999L46.7621 62.2549H45.5637L47.5351 56.6372H48.9105L50.8972 62.2549H49.7719ZM47.4619 60.2076H49.0472L48.234 57.9116L47.4619 60.2076Z" fill="white"/>
<path d="M60.1904 61.2839C60.4947 61.2883 60.795 61.2151 61.0631 61.0712C61.3131 60.9394 61.5186 60.737 61.6542 60.4894L62.6114 61.0431C62.408 61.3852 62.1287 61.6762 61.795 61.8939C61.4513 62.1197 61.0633 62.2702 60.6569 62.3352V62.6241C60.8076 62.6577 60.9465 62.7312 61.059 62.8368C61.1142 62.8902 61.1573 62.9547 61.1857 63.0259C61.2142 63.0971 61.2272 63.1735 61.2239 63.2501C61.2239 63.8124 60.6341 64.0585 59.4544 63.9884V63.2581C60.0335 63.2956 60.3231 63.2421 60.3231 63.0976C60.3231 62.9906 60.1542 62.9238 59.8164 62.897V62.3433C59.1043 62.278 58.4453 61.9399 57.9777 61.4003C57.4983 60.8296 57.2455 60.1033 57.267 59.359C57.2884 58.6147 57.5828 57.9042 58.0943 57.362C58.3675 57.0853 58.6951 56.868 59.0565 56.7237C59.4179 56.5794 59.8053 56.5112 60.1944 56.5234C60.6881 56.5194 61.1746 56.6424 61.6068 56.8805C62.0249 57.1059 62.3738 57.4404 62.6162 57.8483L61.6591 58.4021C61.5216 58.1525 61.315 57.9477 61.0639 57.8122C60.7116 57.6319 60.3123 57.5642 59.92 57.618C59.5278 57.6718 59.1617 57.8447 58.8713 58.1131C58.5465 58.4798 58.3672 58.9523 58.3672 59.4417C58.3672 59.9311 58.5465 60.4036 58.8713 60.7703C59.0439 60.9419 59.2501 61.0761 59.4771 61.1645C59.7041 61.2529 59.9469 61.2935 60.1904 61.2839Z" fill="white"/>
<path d="M73.2494 62.2556L72.8915 61.2444H70.5774L70.2396 62.2556H69.0412L71.0126 56.6379H72.3879L74.3747 62.2556H73.2494ZM71.607 55.9614C71.4515 55.8543 71.3415 55.8116 71.2772 55.833C71.2128 55.8544 71.1806 55.9613 71.1806 56.1539H70.3442C70.3383 55.9411 70.3654 55.7286 70.4246 55.524C70.4651 55.3763 70.5443 55.242 70.6539 55.1348C70.7478 55.0503 70.8633 54.9933 70.9876 54.9702C71.1214 54.946 71.2591 54.9529 71.3898 54.9903C71.5385 55.0322 71.6796 55.0972 71.808 55.1829C71.9635 55.2899 72.0722 55.3327 72.1338 55.3113C72.1955 55.2899 72.2263 55.1829 72.2263 54.9903H73.0709C73.08 55.247 73.0347 55.5026 72.9382 55.7407C72.8756 55.908 72.7521 56.0455 72.5922 56.1259C72.4451 56.1881 72.2826 56.2049 72.1258 56.174C71.9405 56.138 71.7641 56.0657 71.607 55.9614ZM70.9394 60.2083H72.5247L71.714 57.9139L70.9394 60.2083Z" fill="white"/>
<path d="M85.7358 61.5203C85.2541 62.008 84.6176 62.3136 83.9351 62.385C83.2526 62.4565 82.5664 62.2892 81.9937 61.9119C81.4211 61.5346 80.9975 60.9707 80.7953 60.3164C80.5931 59.6621 80.6247 58.958 80.885 58.3244C81.1453 57.6909 81.618 57.1671 82.2223 56.8427C82.8266 56.5182 83.525 56.4132 84.1984 56.5454C84.8717 56.6777 85.4781 57.0392 85.914 57.568C86.3499 58.0968 86.5883 58.7603 86.5884 59.445C86.5958 59.8307 86.5239 60.2137 86.3773 60.5706C86.2306 60.9276 86.0124 61.2508 85.7358 61.5203ZM82.3641 60.7659C82.7131 61.0982 83.177 61.2836 83.6594 61.2836C84.1419 61.2836 84.6057 61.0982 84.9548 60.7659C85.2919 60.407 85.4795 59.9336 85.4795 59.4418C85.4795 58.9499 85.2919 58.4765 84.9548 58.1176C84.607 57.7829 84.1426 57.5959 83.6594 57.5959C83.1762 57.5959 82.7119 57.7829 82.3641 58.1176C82.0272 58.4766 81.8397 58.95 81.8397 59.4418C81.8397 59.9336 82.0272 60.407 82.3641 60.7659Z" fill="white"/>
<path d="M22.7165 26.1152V18.5796H43.9321V26.1152H22.7165Z" stroke="white"/>
<path d="M18.439 44.0133V22.8477H25.9939V44.0133H18.439Z" stroke="white"/>
<path d="M26.4906 26.6154H0.000793457V18.0774H17.9373V0.181152H26.4906V26.6154Z" fill="white"/>
<path d="M86.8572 0.182129H78.3023V44.5135H86.8572V0.182129Z" fill="white"/>
<path d="M64.2882 44.6957C59.8583 44.6957 55.5278 43.385 51.8445 40.9294C48.1611 38.4738 45.2903 34.9835 43.595 30.9C41.8998 26.8165 41.4562 22.3231 42.3205 17.988C43.1847 13.6529 45.3179 9.67094 48.4503 6.54554C51.5828 3.42014 55.5737 1.29171 59.9186 0.429417C64.2634 -0.432879 68.7669 0.00968391 72.8597 1.70114C76.9524 3.39259 80.4505 6.25695 82.9116 9.93204C85.3728 13.6071 86.6864 17.9279 86.6864 22.3478C86.6798 28.2728 84.3179 33.9533 80.1189 38.1429C75.9198 42.3325 70.2266 44.6891 64.2882 44.6957ZM64.2882 8.53563C61.5503 8.53563 58.8738 9.3457 56.5973 10.8634C54.3208 12.3811 52.5464 14.5383 51.4987 17.0621C50.4509 19.586 50.1767 22.3632 50.7109 25.0425C51.245 27.7218 52.5635 30.1829 54.4995 32.1145C56.4356 34.0462 58.9022 35.3617 61.5876 35.8946C64.2729 36.4276 67.0563 36.1541 69.5858 35.1087C72.1154 34.0632 74.2774 32.2929 75.7985 30.0215C77.3196 27.7501 78.1315 25.0796 78.1315 22.3478C78.1275 18.6859 76.6677 15.175 74.0725 12.5856C71.4772 9.99617 67.9585 8.53967 64.2882 8.53563Z" fill="white"/>
</svg>
